<mxfile host="app.diagrams.net" modified="2020-12-27T16:00:44.581Z" agent="5.0 (Windows NT 10.0; Win64; x64) AppleWebKit/537.36 (KHTML, like Gecko) Chrome/87.0.4280.88 Safari/537.36" etag="-oOT4FxSEXSHXWLONc6V" version="14.1.2" type="github">
  <diagram name="Page-1" id="9f46799a-70d6-7492-0946-bef42562c5a5">
    <mxGraphModel dx="868" dy="488" grid="1" gridSize="10" guides="1" tooltips="1" connect="1" arrows="1" fold="1" page="1" pageScale="1" pageWidth="1100" pageHeight="850" background="#ffffff" math="0" shadow="0">
      <root>
        <mxCell id="0" />
        <mxCell id="1" parent="0" />
        <mxCell id="78961159f06e98e8-124" style="html=1;labelBackgroundColor=none;startFill=0;startSize=8;endArrow=none;endFill=0;endSize=16;fontFamily=Verdana;fontSize=12;exitX=1.013;exitY=0;exitDx=0;exitDy=0;exitPerimeter=0;entryX=0;entryY=0.5;entryDx=0;entryDy=0;" parent="1" source="78961159f06e98e8-32" target="78961159f06e98e8-70" edge="1">
          <mxGeometry relative="1" as="geometry">
            <mxPoint x="390" y="320" as="sourcePoint" />
          </mxGeometry>
        </mxCell>
        <mxCell id="78961159f06e98e8-17" value="Laboratoire" style="swimlane;html=1;fontStyle=1;align=center;verticalAlign=top;childLayout=stackLayout;horizontal=1;startSize=26;horizontalStack=0;resizeParent=1;resizeLast=0;collapsible=1;marginBottom=0;swimlaneFillColor=#ffffff;rounded=0;shadow=0;comic=0;labelBackgroundColor=none;strokeWidth=1;fillColor=none;fontFamily=Verdana;fontSize=12" parent="1" vertex="1">
          <mxGeometry x="120" y="223" width="120" height="157" as="geometry" />
        </mxCell>
        <mxCell id="78961159f06e98e8-24" value="ID_laboratoire" style="text;html=1;strokeColor=none;align=left;verticalAlign=top;spacingLeft=4;spacingRight=4;whiteSpace=wrap;overflow=hidden;rotatable=0;points=[[0,0.5],[1,0.5]];portConstraint=eastwest;fillColor=#ffffff;" parent="78961159f06e98e8-17" vertex="1">
          <mxGeometry y="26" width="120" height="26" as="geometry" />
        </mxCell>
        <mxCell id="78961159f06e98e8-21" value="nom" style="text;html=1;strokeColor=none;fillColor=none;align=left;verticalAlign=top;spacingLeft=4;spacingRight=4;whiteSpace=wrap;overflow=hidden;rotatable=0;points=[[0,0.5],[1,0.5]];portConstraint=eastwest;" parent="78961159f06e98e8-17" vertex="1">
          <mxGeometry y="52" width="120" height="26" as="geometry" />
        </mxCell>
        <mxCell id="78961159f06e98e8-23" value="accronyme" style="text;html=1;strokeColor=none;fillColor=none;align=left;verticalAlign=top;spacingLeft=4;spacingRight=4;whiteSpace=wrap;overflow=hidden;rotatable=0;points=[[0,0.5],[1,0.5]];portConstraint=eastwest;" parent="78961159f06e98e8-17" vertex="1">
          <mxGeometry y="78" width="120" height="26" as="geometry" />
        </mxCell>
        <mxCell id="78961159f06e98e8-25" value="adresse" style="text;html=1;strokeColor=none;fillColor=none;align=left;verticalAlign=top;spacingLeft=4;spacingRight=4;whiteSpace=wrap;overflow=hidden;rotatable=0;points=[[0,0.5],[1,0.5]];portConstraint=eastwest;" parent="78961159f06e98e8-17" vertex="1">
          <mxGeometry y="104" width="120" height="26" as="geometry" />
        </mxCell>
        <mxCell id="78961159f06e98e8-26" value="universite" style="text;html=1;strokeColor=none;fillColor=none;align=left;verticalAlign=top;spacingLeft=4;spacingRight=4;whiteSpace=wrap;overflow=hidden;rotatable=0;points=[[0,0.5],[1,0.5]];portConstraint=eastwest;" parent="78961159f06e98e8-17" vertex="1">
          <mxGeometry y="130" width="120" height="26" as="geometry" />
        </mxCell>
        <mxCell id="78961159f06e98e8-122" style="html=1;labelBackgroundColor=none;startFill=0;startSize=8;endArrow=none;endFill=0;endSize=16;fontFamily=Verdana;fontSize=12;exitX=1;exitY=0.846;exitDx=0;exitDy=0;exitPerimeter=0;entryX=0;entryY=0.5;entryDx=0;entryDy=0;" parent="1" source="78961159f06e98e8-31" target="78961159f06e98e8-44" edge="1">
          <mxGeometry relative="1" as="geometry" />
        </mxCell>
        <mxCell id="78961159f06e98e8-30" value="Intervenant" style="swimlane;html=1;fontStyle=1;align=center;verticalAlign=top;childLayout=stackLayout;horizontal=1;startSize=26;horizontalStack=0;resizeParent=1;resizeLast=0;collapsible=1;marginBottom=0;swimlaneFillColor=#ffffff;rounded=0;shadow=0;comic=0;labelBackgroundColor=none;strokeWidth=1;fillColor=none;fontFamily=Verdana;fontSize=12" parent="1" vertex="1">
          <mxGeometry x="310" y="120" width="130" height="210" as="geometry" />
        </mxCell>
        <mxCell id="78961159f06e98e8-31" value="num_intervenant" style="text;html=1;strokeColor=none;fillColor=none;align=left;verticalAlign=top;spacingLeft=4;spacingRight=4;whiteSpace=wrap;overflow=hidden;rotatable=0;points=[[0,0.5],[1,0.5]];portConstraint=eastwest;" parent="78961159f06e98e8-30" vertex="1">
          <mxGeometry y="26" width="130" height="26" as="geometry" />
        </mxCell>
        <mxCell id="78961159f06e98e8-32" value="nom" style="text;html=1;strokeColor=none;fillColor=none;align=left;verticalAlign=top;spacingLeft=4;spacingRight=4;whiteSpace=wrap;overflow=hidden;rotatable=0;points=[[0,0.5],[1,0.5]];portConstraint=eastwest;" parent="78961159f06e98e8-30" vertex="1">
          <mxGeometry y="52" width="130" height="26" as="geometry" />
        </mxCell>
        <mxCell id="78961159f06e98e8-33" value="prenom" style="text;html=1;strokeColor=none;fillColor=none;align=left;verticalAlign=top;spacingLeft=4;spacingRight=4;whiteSpace=wrap;overflow=hidden;rotatable=0;points=[[0,0.5],[1,0.5]];portConstraint=eastwest;" parent="78961159f06e98e8-30" vertex="1">
          <mxGeometry y="78" width="130" height="26" as="geometry" />
        </mxCell>
        <mxCell id="78961159f06e98e8-34" value="sexe" style="text;html=1;strokeColor=none;fillColor=none;align=left;verticalAlign=top;spacingLeft=4;spacingRight=4;whiteSpace=wrap;overflow=hidden;rotatable=0;points=[[0,0.5],[1,0.5]];portConstraint=eastwest;" parent="78961159f06e98e8-30" vertex="1">
          <mxGeometry y="104" width="130" height="26" as="geometry" />
        </mxCell>
        <mxCell id="78961159f06e98e8-36" value="affiliation" style="text;html=1;strokeColor=none;fillColor=none;align=left;verticalAlign=top;spacingLeft=4;spacingRight=4;whiteSpace=wrap;overflow=hidden;rotatable=0;points=[[0,0.5],[1,0.5]];portConstraint=eastwest;" parent="78961159f06e98e8-30" vertex="1">
          <mxGeometry y="130" width="130" height="26" as="geometry" />
        </mxCell>
        <mxCell id="78961159f06e98e8-39" value="specialite" style="text;html=1;strokeColor=none;fillColor=none;align=left;verticalAlign=top;spacingLeft=4;spacingRight=4;whiteSpace=wrap;overflow=hidden;rotatable=0;points=[[0,0.5],[1,0.5]];portConstraint=eastwest;" parent="78961159f06e98e8-30" vertex="1">
          <mxGeometry y="156" width="130" height="26" as="geometry" />
        </mxCell>
        <mxCell id="78961159f06e98e8-40" value="adresse" style="text;html=1;strokeColor=none;fillColor=none;align=left;verticalAlign=top;spacingLeft=4;spacingRight=4;whiteSpace=wrap;overflow=hidden;rotatable=0;points=[[0,0.5],[1,0.5]];portConstraint=eastwest;" parent="78961159f06e98e8-30" vertex="1">
          <mxGeometry y="182" width="130" height="26" as="geometry" />
        </mxCell>
        <mxCell id="78961159f06e98e8-43" value="Role" style="swimlane;html=1;fontStyle=1;align=center;verticalAlign=top;childLayout=stackLayout;horizontal=1;startSize=26;horizontalStack=0;resizeParent=1;resizeLast=0;collapsible=1;marginBottom=0;swimlaneFillColor=#ffffff;rounded=0;shadow=0;comic=0;labelBackgroundColor=none;strokeWidth=1;fillColor=none;fontFamily=Verdana;fontSize=12" parent="1" vertex="1">
          <mxGeometry x="550" y="70" width="120" height="117" as="geometry" />
        </mxCell>
        <mxCell id="78961159f06e98e8-44" value="num_intervenant" style="text;html=1;strokeColor=none;fillColor=none;align=left;verticalAlign=top;spacingLeft=4;spacingRight=4;whiteSpace=wrap;overflow=hidden;rotatable=0;points=[[0,0.5],[1,0.5]];portConstraint=eastwest;" parent="78961159f06e98e8-43" vertex="1">
          <mxGeometry y="26" width="120" height="26" as="geometry" />
        </mxCell>
        <mxCell id="78961159f06e98e8-45" value="num_article" style="text;html=1;strokeColor=none;fillColor=none;align=left;verticalAlign=top;spacingLeft=4;spacingRight=4;whiteSpace=wrap;overflow=hidden;rotatable=0;points=[[0,0.5],[1,0.5]];portConstraint=eastwest;" parent="78961159f06e98e8-43" vertex="1">
          <mxGeometry y="52" width="120" height="26" as="geometry" />
        </mxCell>
        <mxCell id="An36iGu6bakJfNmey5x9-7" value="role" style="text;html=1;strokeColor=none;fillColor=none;align=left;verticalAlign=top;spacingLeft=4;spacingRight=4;whiteSpace=wrap;overflow=hidden;rotatable=0;points=[[0,0.5],[1,0.5]];portConstraint=eastwest;" vertex="1" parent="78961159f06e98e8-43">
          <mxGeometry y="78" width="120" height="26" as="geometry" />
        </mxCell>
        <mxCell id="78961159f06e98e8-130" style="html=1;labelBackgroundColor=none;startFill=0;startSize=8;endArrow=none;endFill=0;endSize=16;fontFamily=Verdana;fontSize=12;elbow=vertical;exitX=1;exitY=0.5;exitDx=0;exitDy=0;entryX=0;entryY=0.5;entryDx=0;entryDy=0;" parent="1" source="78961159f06e98e8-83" target="78961159f06e98e8-97" edge="1">
          <mxGeometry relative="1" as="geometry">
            <mxPoint x="930" y="420" as="targetPoint" />
          </mxGeometry>
        </mxCell>
        <mxCell id="78961159f06e98e8-69" value="Analyse" style="swimlane;html=1;fontStyle=1;align=center;verticalAlign=top;childLayout=stackLayout;horizontal=1;startSize=26;horizontalStack=0;resizeParent=1;resizeLast=0;collapsible=1;marginBottom=0;swimlaneFillColor=#ffffff;rounded=0;shadow=0;comic=0;labelBackgroundColor=none;strokeWidth=1;fillColor=none;fontFamily=Verdana;fontSize=12" parent="1" vertex="1">
          <mxGeometry x="550" y="220" width="120" height="160" as="geometry" />
        </mxCell>
        <mxCell id="78961159f06e98e8-70" value="num_intervenant" style="text;html=1;strokeColor=none;fillColor=none;align=left;verticalAlign=top;spacingLeft=4;spacingRight=4;whiteSpace=wrap;overflow=hidden;rotatable=0;points=[[0,0.5],[1,0.5]];portConstraint=eastwest;" parent="78961159f06e98e8-69" vertex="1">
          <mxGeometry y="26" width="120" height="26" as="geometry" />
        </mxCell>
        <mxCell id="78961159f06e98e8-71" value="num_article" style="text;html=1;strokeColor=none;fillColor=none;align=left;verticalAlign=top;spacingLeft=4;spacingRight=4;whiteSpace=wrap;overflow=hidden;rotatable=0;points=[[0,0.5],[1,0.5]];portConstraint=eastwest;" parent="78961159f06e98e8-69" vertex="1">
          <mxGeometry y="52" width="120" height="26" as="geometry" />
        </mxCell>
        <mxCell id="78961159f06e98e8-74" value="note" style="text;html=1;strokeColor=none;fillColor=none;align=left;verticalAlign=top;spacingLeft=4;spacingRight=4;whiteSpace=wrap;overflow=hidden;rotatable=0;points=[[0,0.5],[1,0.5]];portConstraint=eastwest;" parent="78961159f06e98e8-69" vertex="1">
          <mxGeometry y="78" width="120" height="26" as="geometry" />
        </mxCell>
        <mxCell id="78961159f06e98e8-75" value="date_note" style="text;html=1;strokeColor=none;fillColor=none;align=left;verticalAlign=top;spacingLeft=4;spacingRight=4;whiteSpace=wrap;overflow=hidden;rotatable=0;points=[[0,0.5],[1,0.5]];portConstraint=eastwest;" parent="78961159f06e98e8-69" vertex="1">
          <mxGeometry y="104" width="120" height="26" as="geometry" />
        </mxCell>
        <mxCell id="78961159f06e98e8-76" value="commentaire" style="text;html=1;strokeColor=none;fillColor=none;align=left;verticalAlign=top;spacingLeft=4;spacingRight=4;whiteSpace=wrap;overflow=hidden;rotatable=0;points=[[0,0.5],[1,0.5]];portConstraint=eastwest;" parent="78961159f06e98e8-69" vertex="1">
          <mxGeometry y="130" width="120" height="26" as="geometry" />
        </mxCell>
        <mxCell id="78961159f06e98e8-82" value="Revue" style="swimlane;html=1;fontStyle=1;align=center;verticalAlign=top;childLayout=stackLayout;horizontal=1;startSize=26;horizontalStack=0;resizeParent=1;resizeLast=0;collapsible=1;marginBottom=0;swimlaneFillColor=#ffffff;rounded=0;shadow=0;comic=0;labelBackgroundColor=none;strokeWidth=1;fillColor=none;fontFamily=Verdana;fontSize=12" parent="1" vertex="1">
          <mxGeometry x="590" y="458" width="110" height="140" as="geometry" />
        </mxCell>
        <mxCell id="78961159f06e98e8-83" value="ISSN" style="text;html=1;strokeColor=none;fillColor=none;align=left;verticalAlign=top;spacingLeft=4;spacingRight=4;whiteSpace=wrap;overflow=hidden;rotatable=0;points=[[0,0.5],[1,0.5]];portConstraint=eastwest;" parent="78961159f06e98e8-82" vertex="1">
          <mxGeometry y="26" width="110" height="26" as="geometry" />
        </mxCell>
        <mxCell id="78961159f06e98e8-84" value="nom" style="text;html=1;strokeColor=none;fillColor=none;align=left;verticalAlign=top;spacingLeft=4;spacingRight=4;whiteSpace=wrap;overflow=hidden;rotatable=0;points=[[0,0.5],[1,0.5]];portConstraint=eastwest;" parent="78961159f06e98e8-82" vertex="1">
          <mxGeometry y="52" width="110" height="26" as="geometry" />
        </mxCell>
        <mxCell id="78961159f06e98e8-85" value="periodicite" style="text;html=1;strokeColor=none;fillColor=none;align=left;verticalAlign=top;spacingLeft=4;spacingRight=4;whiteSpace=wrap;overflow=hidden;rotatable=0;points=[[0,0.5],[1,0.5]];portConstraint=eastwest;" parent="78961159f06e98e8-82" vertex="1">
          <mxGeometry y="78" width="110" height="26" as="geometry" />
        </mxCell>
        <mxCell id="78961159f06e98e8-86" value="nom_editeur" style="text;html=1;strokeColor=none;fillColor=none;align=left;verticalAlign=top;spacingLeft=4;spacingRight=4;whiteSpace=wrap;overflow=hidden;rotatable=0;points=[[0,0.5],[1,0.5]];portConstraint=eastwest;" parent="78961159f06e98e8-82" vertex="1">
          <mxGeometry y="104" width="110" height="26" as="geometry" />
        </mxCell>
        <mxCell id="78961159f06e98e8-127" style="html=1;labelBackgroundColor=none;startFill=0;startSize=8;endArrow=none;endFill=0;endSize=16;fontFamily=Verdana;fontSize=12;entryX=1;entryY=0.5;entryDx=0;entryDy=0;exitX=1;exitY=0.5;exitDx=0;exitDy=0;edgeStyle=orthogonalEdgeStyle;" parent="1" source="78961159f06e98e8-96" target="78961159f06e98e8-109" edge="1">
          <mxGeometry relative="1" as="geometry">
            <mxPoint x="1020" y="240" as="targetPoint" />
            <Array as="points">
              <mxPoint x="1060" y="467" />
              <mxPoint x="1060" y="129" />
            </Array>
          </mxGeometry>
        </mxCell>
        <mxCell id="78961159f06e98e8-95" value="Soumission" style="swimlane;html=1;fontStyle=1;align=center;verticalAlign=top;childLayout=stackLayout;horizontal=1;startSize=26;horizontalStack=0;resizeParent=1;resizeLast=0;collapsible=1;marginBottom=0;swimlaneFillColor=#ffffff;rounded=0;shadow=0;comic=0;labelBackgroundColor=none;strokeWidth=1;fillColor=none;fontFamily=Verdana;fontSize=12" parent="1" vertex="1">
          <mxGeometry x="830" y="430" width="130" height="168" as="geometry" />
        </mxCell>
        <mxCell id="78961159f06e98e8-96" value="num_article" style="text;html=1;strokeColor=none;fillColor=none;align=left;verticalAlign=top;spacingLeft=4;spacingRight=4;whiteSpace=wrap;overflow=hidden;rotatable=0;points=[[0,0.5],[1,0.5]];portConstraint=eastwest;" parent="78961159f06e98e8-95" vertex="1">
          <mxGeometry y="26" width="130" height="22" as="geometry" />
        </mxCell>
        <mxCell id="78961159f06e98e8-97" value="num_revue" style="text;html=1;strokeColor=none;fillColor=none;align=left;verticalAlign=top;spacingLeft=4;spacingRight=4;whiteSpace=wrap;overflow=hidden;rotatable=0;points=[[0,0.5],[1,0.5]];portConstraint=eastwest;" parent="78961159f06e98e8-95" vertex="1">
          <mxGeometry y="48" width="130" height="26" as="geometry" />
        </mxCell>
        <mxCell id="78961159f06e98e8-98" value="date_soumission" style="text;html=1;strokeColor=none;fillColor=none;align=left;verticalAlign=top;spacingLeft=4;spacingRight=4;whiteSpace=wrap;overflow=hidden;rotatable=0;points=[[0,0.5],[1,0.5]];portConstraint=eastwest;" parent="78961159f06e98e8-95" vertex="1">
          <mxGeometry y="74" width="130" height="26" as="geometry" />
        </mxCell>
        <mxCell id="78961159f06e98e8-102" value="justification" style="text;html=1;strokeColor=none;fillColor=none;align=left;verticalAlign=top;spacingLeft=4;spacingRight=4;whiteSpace=wrap;overflow=hidden;rotatable=0;points=[[0,0.5],[1,0.5]];portConstraint=eastwest;" parent="78961159f06e98e8-95" vertex="1">
          <mxGeometry y="100" width="130" height="26" as="geometry" />
        </mxCell>
        <mxCell id="An36iGu6bakJfNmey5x9-9" value="date_limite_reviewer" style="text;html=1;strokeColor=none;fillColor=none;align=left;verticalAlign=top;spacingLeft=4;spacingRight=4;whiteSpace=wrap;overflow=hidden;rotatable=0;points=[[0,0.5],[1,0.5]];portConstraint=eastwest;" vertex="1" parent="78961159f06e98e8-95">
          <mxGeometry y="126" width="130" height="26" as="geometry" />
        </mxCell>
        <mxCell id="78961159f06e98e8-126" style="html=1;labelBackgroundColor=none;startFill=0;startSize=8;endArrow=none;endFill=0;endSize=16;fontFamily=Verdana;fontSize=12;entryX=1;entryY=0.5;entryDx=0;entryDy=0;exitX=0;exitY=0.5;exitDx=0;exitDy=0;" parent="1" source="78961159f06e98e8-109" target="78961159f06e98e8-45" edge="1">
          <mxGeometry relative="1" as="geometry" />
        </mxCell>
        <mxCell id="78961159f06e98e8-108" value="Article" style="swimlane;html=1;fontStyle=1;align=center;verticalAlign=top;childLayout=stackLayout;horizontal=1;startSize=26;horizontalStack=0;resizeParent=1;resizeLast=0;collapsible=1;marginBottom=0;swimlaneFillColor=#ffffff;rounded=0;shadow=0;comic=0;labelBackgroundColor=none;strokeWidth=1;fillColor=none;fontFamily=Verdana;fontSize=12" parent="1" vertex="1">
          <mxGeometry x="830" y="90" width="110" height="147" as="geometry" />
        </mxCell>
        <mxCell id="78961159f06e98e8-109" value="num_article" style="text;html=1;strokeColor=none;fillColor=none;align=left;verticalAlign=top;spacingLeft=4;spacingRight=4;whiteSpace=wrap;overflow=hidden;rotatable=0;points=[[0,0.5],[1,0.5]];portConstraint=eastwest;" parent="78961159f06e98e8-108" vertex="1">
          <mxGeometry y="26" width="110" height="26" as="geometry" />
        </mxCell>
        <mxCell id="78961159f06e98e8-110" value="Titre" style="text;html=1;strokeColor=none;fillColor=none;align=left;verticalAlign=top;spacingLeft=4;spacingRight=4;whiteSpace=wrap;overflow=hidden;rotatable=0;points=[[0,0.5],[1,0.5]];portConstraint=eastwest;" parent="78961159f06e98e8-108" vertex="1">
          <mxGeometry y="52" width="110" height="26" as="geometry" />
        </mxCell>
        <mxCell id="78961159f06e98e8-117" value="Abstract" style="text;html=1;strokeColor=none;fillColor=none;align=left;verticalAlign=top;spacingLeft=4;spacingRight=4;whiteSpace=wrap;overflow=hidden;rotatable=0;points=[[0,0.5],[1,0.5]];portConstraint=eastwest;" parent="78961159f06e98e8-108" vertex="1">
          <mxGeometry y="78" width="110" height="26" as="geometry" />
        </mxCell>
        <mxCell id="78961159f06e98e8-120" value="Contenu" style="text;html=1;strokeColor=none;fillColor=none;align=left;verticalAlign=top;spacingLeft=4;spacingRight=4;whiteSpace=wrap;overflow=hidden;rotatable=0;points=[[0,0.5],[1,0.5]];portConstraint=eastwest;" parent="78961159f06e98e8-108" vertex="1">
          <mxGeometry y="104" width="110" height="26" as="geometry" />
        </mxCell>
        <mxCell id="An36iGu6bakJfNmey5x9-6" value="" style="endArrow=none;html=1;entryX=0;entryY=0.5;entryDx=0;entryDy=0;exitX=1;exitY=0.5;exitDx=0;exitDy=0;" edge="1" parent="1" source="78961159f06e98e8-24" target="78961159f06e98e8-36">
          <mxGeometry width="50" height="50" relative="1" as="geometry">
            <mxPoint x="180" y="200" as="sourcePoint" />
            <mxPoint x="316" y="162" as="targetPoint" />
          </mxGeometry>
        </mxCell>
        <mxCell id="An36iGu6bakJfNmey5x9-11" value="" style="endArrow=none;html=1;exitX=1;exitY=0.5;exitDx=0;exitDy=0;entryX=-0.006;entryY=0.808;entryDx=0;entryDy=0;entryPerimeter=0;" edge="1" parent="1" source="78961159f06e98e8-71" target="78961159f06e98e8-109">
          <mxGeometry width="50" height="50" relative="1" as="geometry">
            <mxPoint x="670" y="340" as="sourcePoint" />
            <mxPoint x="720" y="290" as="targetPoint" />
          </mxGeometry>
        </mxCell>
      </root>
    </mxGraphModel>
  </diagram>
</mxfile>
